<svg xmlns="http://www.w3.org/2000/svg" version="1.1" xmlns:xlink="http://www.w3.org/1999/xlink" xmlns:svgjs="http://svgjs.dev/svgjs" viewBox="0 0 800 800"><circle r="3.5" cx="281" cy="11" stroke-width="2" stroke="hsl(61, 50%, 50%)" fill="none" opacity="0.57"></circle><circle r="7.5" cx="320" cy="48" stroke-width="2" stroke="hsl(60, 50%, 50%)" fill="none" opacity="0.44"></circle><circle r="8.5" cx="780" cy="629" stroke-width="2" stroke="hsl(157, 50%, 50%)" fill="none" opacity="0.80"></circle><circle r="9.5" cx="683" cy="162" stroke-width="2" stroke="hsl(271, 50%, 50%)" fill="none" opacity="0.30"></circle><circle r="7" cx="311" cy="326" stroke-width="2" stroke="hsl(159, 50%, 50%)" fill="none" opacity="0.57"></circle><circle r="9" cx="670" cy="125" stroke-width="2" stroke="hsl(269, 50%, 50%)" fill="none" opacity="0.92"></circle><circle r="12" cx="758" cy="277" stroke-width="2" stroke="hsl(193, 50%, 50%)" fill="none" opacity="0.94"></circle><circle r="10.5" cx="668" cy="62" stroke-width="2" stroke="hsl(237, 50%, 50%)" fill="none" opacity="0.94"></circle><circle r="7.5" cx="500" cy="106" stroke-width="2" stroke="hsl(161, 50%, 50%)" fill="none" opacity="0.20"></circle><circle r="11" cx="712" cy="321" stroke-width="2" stroke="hsl(256, 50%, 50%)" fill="none" opacity="0.54"></circle><circle r="5.5" cx="362" cy="54" stroke-width="2" stroke="hsl(57, 50%, 50%)" fill="none" opacity="0.43"></circle><circle r="10" cx="118" cy="61" stroke-width="2" stroke="hsl(226, 50%, 50%)" fill="none" opacity="0.39"></circle><circle r="8.5" cx="366" cy="137" stroke-width="2" stroke="hsl(146, 50%, 50%)" fill="none" opacity="0.98"></circle><circle r="13" cx="495" cy="333" stroke-width="2" stroke="hsl(259, 50%, 50%)" fill="none" opacity="0.40"></circle><circle r="12.5" cx="585" cy="753" stroke-width="2" stroke="hsl(292, 50%, 50%)" fill="none" opacity="0.89"></circle><circle r="15" cx="673" cy="746" stroke-width="2" stroke="hsl(286, 50%, 50%)" fill="none" opacity="0.74"></circle><circle r="10.5" cx="35" cy="760" stroke-width="2" stroke="hsl(284, 50%, 50%)" fill="none" opacity="0.49"></circle><circle r="13.5" cx="684" cy="209" stroke-width="2" stroke="hsl(278, 50%, 50%)" fill="none" opacity="0.46"></circle><circle r="9" cx="238" cy="764" stroke-width="2" stroke="hsl(128, 50%, 50%)" fill="none" opacity="0.93"></circle><circle r="11.5" cx="394" cy="603" stroke-width="2" stroke="hsl(220, 50%, 50%)" fill="none" opacity="0.60"></circle><circle r="12" cx="431" cy="284" stroke-width="2" stroke="hsl(237, 50%, 50%)" fill="none" opacity="0.12"></circle><circle r="8.5" cx="513" cy="137" stroke-width="2" stroke="hsl(207, 50%, 50%)" fill="none" opacity="0.12"></circle><circle r="7" cx="188" cy="705" stroke-width="2" stroke="hsl(137, 50%, 50%)" fill="none" opacity="0.80"></circle><circle r="11" cx="560" cy="200" stroke-width="2" stroke="hsl(283, 50%, 50%)" fill="none" opacity="0.27"></circle><circle r="8.5" cx="630" cy="42" stroke-width="2" stroke="hsl(234, 50%, 50%)" fill="none" opacity="0.23"></circle><circle r="10.5" cx="119" cy="705" stroke-width="2" stroke="hsl(202, 50%, 50%)" fill="none" opacity="0.95"></circle><circle r="9" cx="223" cy="662" stroke-width="2" stroke="hsl(128, 50%, 50%)" fill="none" opacity="0.29"></circle><circle r="16" cx="62" cy="648" stroke-width="2" stroke="hsl(266, 50%, 50%)" fill="none" opacity="0.50"></circle><circle r="10.5" cx="773" cy="98" stroke-width="2" stroke="hsl(175, 50%, 50%)" fill="none" opacity="0.28"></circle><circle r="9.5" cx="292" cy="423" stroke-width="2" stroke="hsl(150, 50%, 50%)" fill="none" opacity="0.45"></circle><circle r="7.5" cx="42" cy="202" stroke-width="2" stroke="hsl(276, 50%, 50%)" fill="none" opacity="0.56"></circle><circle r="8.5" cx="221" cy="456" stroke-width="2" stroke="hsl(128, 50%, 50%)" fill="none" opacity="0.73"></circle><circle r="4.5" cx="790" cy="590" stroke-width="2" stroke="hsl(141, 50%, 50%)" fill="none" opacity="0.32"></circle><circle r="12" cx="574" cy="709" stroke-width="2" stroke="hsl(288, 50%, 50%)" fill="none" opacity="0.83"></circle><circle r="9.5" cx="19" cy="143" stroke-width="2" stroke="hsl(298, 50%, 50%)" fill="none" opacity="0.71"></circle><circle r="13" cx="441" cy="394" stroke-width="2" stroke="hsl(241, 50%, 50%)" fill="none" opacity="0.30"></circle><circle r="9.5" cx="397" cy="384" stroke-width="2" stroke="hsl(220, 50%, 50%)" fill="none" opacity="0.44"></circle><circle r="10.5" cx="672" cy="597" stroke-width="2" stroke="hsl(286, 50%, 50%)" fill="none" opacity="0.14"></circle><circle r="10" cx="612" cy="660" stroke-width="2" stroke="hsl(297, 50%, 50%)" fill="none" opacity="0.31"></circle><circle r="11.5" cx="629" cy="111" stroke-width="2" stroke="hsl(262, 50%, 50%)" fill="none" opacity="0.32"></circle><circle r="6.5" cx="31" cy="178" stroke-width="2" stroke="hsl(289, 50%, 50%)" fill="none" opacity="0.29"></circle><circle r="12" cx="612" cy="145" stroke-width="2" stroke="hsl(275, 50%, 50%)" fill="none" opacity="0.99"></circle><circle r="15" cx="695" cy="447" stroke-width="2" stroke="hsl(268, 50%, 50%)" fill="none" opacity="0.30"></circle><circle r="8.5" cx="592" cy="33" stroke-width="2" stroke="hsl(215, 50%, 50%)" fill="none" opacity="0.89"></circle><circle r="15.5" cx="658" cy="409" stroke-width="2" stroke="hsl(292, 50%, 50%)" fill="none" opacity="0.39"></circle><circle r="6.5" cx="71" cy="18" stroke-width="2" stroke="hsl(196, 50%, 50%)" fill="none" opacity="0.55"></circle><circle r="5.5" cx="395" cy="49" stroke-width="2" stroke="hsl(47, 50%, 50%)" fill="none" opacity="0.49"></circle><circle r="15" cx="497" cy="481" stroke-width="2" stroke="hsl(259, 50%, 50%)" fill="none" opacity="0.62"></circle><circle r="5.5" cx="44" cy="163" stroke-width="2" stroke="hsl(286, 50%, 50%)" fill="none" opacity="0.13"></circle><circle r="11.5" cx="579" cy="418" stroke-width="2" stroke="hsl(292, 50%, 50%)" fill="none" opacity="0.52"></circle><circle r="12" cx="99" cy="471" stroke-width="2" stroke="hsl(230, 50%, 50%)" fill="none" opacity="0.39"></circle><circle r="9.5" cx="580" cy="675" stroke-width="2" stroke="hsl(292, 50%, 50%)" fill="none" opacity="0.58"></circle><circle r="9.5" cx="380" cy="508" stroke-width="2" stroke="hsl(213, 50%, 50%)" fill="none" opacity="0.28"></circle><circle r="9.5" cx="291" cy="552" stroke-width="2" stroke="hsl(150, 50%, 50%)" fill="none" opacity="0.31"></circle><circle r="7" cx="9" cy="728" stroke-width="2" stroke="hsl(296, 50%, 50%)" fill="none" opacity="0.16"></circle><circle r="10.5" cx="709" cy="403" stroke-width="2" stroke="hsl(256, 50%, 50%)" fill="none" opacity="0.15"></circle><circle r="10.5" cx="378" cy="681" stroke-width="2" stroke="hsl(213, 50%, 50%)" fill="none" opacity="0.54"></circle><circle r="7" cx="243" cy="211" stroke-width="2" stroke="hsl(128, 50%, 50%)" fill="none" opacity="0.77"></circle><circle r="14" cx="716" cy="776" stroke-width="2" stroke="hsl(242, 50%, 50%)" fill="none" opacity="0.62"></circle><circle r="10" cx="148" cy="682" stroke-width="2" stroke="hsl(176, 50%, 50%)" fill="none" opacity="0.12"></circle><circle r="8.5" cx="238" cy="146" stroke-width="2" stroke="hsl(152, 50%, 50%)" fill="none" opacity="0.25"></circle><circle r="7.5" cx="324" cy="357" stroke-width="2" stroke="hsl(168, 50%, 50%)" fill="none" opacity="0.24"></circle><circle r="14" cx="599" cy="590" stroke-width="2" stroke="hsl(295, 50%, 50%)" fill="none" opacity="0.47"></circle><circle r="10" cx="779" cy="672" stroke-width="2" stroke="hsl(157, 50%, 50%)" fill="none" opacity="0.41"></circle><circle r="9" cx="261" cy="70" stroke-width="2" stroke="hsl(129, 50%, 50%)" fill="none" opacity="0.40"></circle><circle r="12" cx="651" cy="782" stroke-width="2" stroke="hsl(292, 50%, 50%)" fill="none" opacity="0.72"></circle><circle r="13" cx="87" cy="95" stroke-width="2" stroke="hsl(265, 50%, 50%)" fill="none" opacity="0.77"></circle><circle r="9" cx="259" cy="281" stroke-width="2" stroke="hsl(131, 50%, 50%)" fill="none" opacity="0.51"></circle><circle r="7" cx="344" cy="108" stroke-width="2" stroke="hsl(115, 50%, 50%)" fill="none" opacity="0.80"></circle><circle r="9" cx="392" cy="418" stroke-width="2" stroke="hsl(220, 50%, 50%)" fill="none" opacity="0.95"></circle><circle r="7.5" cx="678" cy="32" stroke-width="2" stroke="hsl(223, 50%, 50%)" fill="none" opacity="0.12"></circle><circle r="12.5" cx="531" cy="170" stroke-width="2" stroke="hsl(253, 50%, 50%)" fill="none" opacity="0.42"></circle><circle r="15.5" cx="497" cy="222" stroke-width="2" stroke="hsl(259, 50%, 50%)" fill="none" opacity="0.50"></circle><circle r="11" cx="392" cy="303" stroke-width="2" stroke="hsl(220, 50%, 50%)" fill="none" opacity="0.64"></circle><circle r="12.5" cx="21" cy="108" stroke-width="2" stroke="hsl(288, 50%, 50%)" fill="none" opacity="0.96"></circle><circle r="11.5" cx="369" cy="246" stroke-width="2" stroke="hsl(205, 50%, 50%)" fill="none" opacity="0.18"></circle><circle r="14.5" cx="614" cy="403" stroke-width="2" stroke="hsl(298, 50%, 50%)" fill="none" opacity="0.81"></circle><circle r="8.5" cx="782" cy="146" stroke-width="2" stroke="hsl(160, 50%, 50%)" fill="none" opacity="0.65"></circle><circle r="11.5" cx="736" cy="684" stroke-width="2" stroke="hsl(226, 50%, 50%)" fill="none" opacity="0.86"></circle><circle r="11.5" cx="500" cy="403" stroke-width="2" stroke="hsl(264, 50%, 50%)" fill="none" opacity="0.76"></circle><circle r="10" cx="571" cy="785" stroke-width="2" stroke="hsl(288, 50%, 50%)" fill="none" opacity="0.40"></circle><circle r="11.5" cx="228" cy="338" stroke-width="2" stroke="hsl(127, 50%, 50%)" fill="none" opacity="0.48"></circle><circle r="12" cx="403" cy="168" stroke-width="2" stroke="hsl(201, 50%, 50%)" fill="none" opacity="0.13"></circle><circle r="8.5" cx="20" cy="785" stroke-width="2" stroke="hsl(291, 50%, 50%)" fill="none" opacity="0.32"></circle><circle r="15" cx="561" cy="565" stroke-width="2" stroke="hsl(283, 50%, 50%)" fill="none" opacity="0.82"></circle><circle r="10" cx="255" cy="384" stroke-width="2" stroke="hsl(131, 50%, 50%)" fill="none" opacity="0.20"></circle><circle r="5" cx="366" cy="84" stroke-width="2" stroke="hsl(84, 50%, 50%)" fill="none" opacity="0.58"></circle><circle r="7.5" cx="400" cy="111" stroke-width="2" stroke="hsl(118, 50%, 50%)" fill="none" opacity="0.70"></circle><circle r="12.5" cx="103" cy="591" stroke-width="2" stroke="hsl(216, 50%, 50%)" fill="none" opacity="0.15"></circle><circle r="15" cx="559" cy="487" stroke-width="2" stroke="hsl(283, 50%, 50%)" fill="none" opacity="0.80"></circle><circle r="11.5" cx="63" cy="717" stroke-width="2" stroke="hsl(255, 50%, 50%)" fill="none" opacity="0.72"></circle><circle r="13" cx="690" cy="100" stroke-width="2" stroke="hsl(246, 50%, 50%)" fill="none" opacity="0.55"></circle><circle r="13.5" cx="672" cy="701" stroke-width="2" stroke="hsl(286, 50%, 50%)" fill="none" opacity="0.96"></circle><circle r="10.5" cx="132" cy="96" stroke-width="2" stroke="hsl(237, 50%, 50%)" fill="none" opacity="0.61"></circle><circle r="8.5" cx="353" cy="347" stroke-width="2" stroke="hsl(197, 50%, 50%)" fill="none" opacity="1.00"></circle><circle r="12" cx="633" cy="541" stroke-width="2" stroke="hsl(298, 50%, 50%)" fill="none" opacity="0.78"></circle><circle r="10.5" cx="320" cy="663" stroke-width="2" stroke="hsl(168, 50%, 50%)" fill="none" opacity="0.45"></circle><circle r="10" cx="386" cy="645" stroke-width="2" stroke="hsl(213, 50%, 50%)" fill="none" opacity="0.44"></circle><circle r="9.5" cx="709" cy="60" stroke-width="2" stroke="hsl(219, 50%, 50%)" fill="none" opacity="0.33"></circle><circle r="8" cx="97" cy="25" stroke-width="2" stroke="hsl(194, 50%, 50%)" fill="none" opacity="0.84"></circle><circle r="8.5" cx="268" cy="586" stroke-width="2" stroke="hsl(136, 50%, 50%)" fill="none" opacity="0.95"></circle><circle r="15.5" cx="698" cy="503" stroke-width="2" stroke="hsl(268, 50%, 50%)" fill="none" opacity="0.26"></circle><circle r="16.5" cx="524" cy="529" stroke-width="2" stroke="hsl(269, 50%, 50%)" fill="none" opacity="0.19"></circle><circle r="8.5" cx="273" cy="324" stroke-width="2" stroke="hsl(136, 50%, 50%)" fill="none" opacity="0.66"></circle><circle r="13.5" cx="63" cy="541" stroke-width="2" stroke="hsl(255, 50%, 50%)" fill="none" opacity="0.75"></circle><circle r="11.5" cx="571" cy="274" stroke-width="2" stroke="hsl(288, 50%, 50%)" fill="none" opacity="0.81"></circle><circle r="6.5" cx="556" cy="12" stroke-width="2" stroke="hsl(188, 50%, 50%)" fill="none" opacity="0.46"></circle><circle r="10" cx="550" cy="232" stroke-width="2" stroke="hsl(279, 50%, 50%)" fill="none" opacity="0.87"></circle><circle r="6.5" cx="263" cy="691" stroke-width="2" stroke="hsl(136, 50%, 50%)" fill="none" opacity="0.64"></circle><circle r="7.5" cx="551" cy="361" stroke-width="2" stroke="hsl(283, 50%, 50%)" fill="none" opacity="0.97"></circle><circle r="6" cx="427" cy="126" stroke-width="2" stroke="hsl(160, 50%, 50%)" fill="none" opacity="0.46"></circle><circle r="8" cx="228" cy="709" stroke-width="2" stroke="hsl(127, 50%, 50%)" fill="none" opacity="0.45"></circle><circle r="12" cx="741" cy="424" stroke-width="2" stroke="hsl(210, 50%, 50%)" fill="none" opacity="0.84"></circle><circle r="12.5" cx="627" cy="742" stroke-width="2" stroke="hsl(298, 50%, 50%)" fill="none" opacity="0.40"></circle><circle r="13.5" cx="666" cy="318" stroke-width="2" stroke="hsl(286, 50%, 50%)" fill="none" opacity="0.72"></circle><circle r="10.5" cx="161" cy="401" stroke-width="2" stroke="hsl(164, 50%, 50%)" fill="none" opacity="0.40"></circle><circle r="15" cx="69" cy="292" stroke-width="2" stroke="hsl(255, 50%, 50%)" fill="none" opacity="0.48"></circle><circle r="12" cx="363" cy="721" stroke-width="2" stroke="hsl(205, 50%, 50%)" fill="none" opacity="0.72"></circle><circle r="13.5" cx="404" cy="215" stroke-width="2" stroke="hsl(226, 50%, 50%)" fill="none" opacity="0.96"></circle><circle r="11" cx="767" cy="232" stroke-width="2" stroke="hsl(175, 50%, 50%)" fill="none" opacity="0.92"></circle><circle r="12" cx="639" cy="676" stroke-width="2" stroke="hsl(296, 50%, 50%)" fill="none" opacity="0.94"></circle><circle r="9" cx="266" cy="730" stroke-width="2" stroke="hsl(136, 50%, 50%)" fill="none" opacity="0.59"></circle><circle r="10" cx="778" cy="46" stroke-width="2" stroke="hsl(153, 50%, 50%)" fill="none" opacity="0.51"></circle><circle r="12" cx="131" cy="212" stroke-width="2" stroke="hsl(189, 50%, 50%)" fill="none" opacity="0.96"></circle><circle r="10" cx="609" cy="785" stroke-width="2" stroke="hsl(297, 50%, 50%)" fill="none" opacity="0.53"></circle><circle r="11.5" cx="319" cy="464" stroke-width="2" stroke="hsl(168, 50%, 50%)" fill="none" opacity="0.31"></circle><circle r="12.5" cx="594" cy="81" stroke-width="2" stroke="hsl(231, 50%, 50%)" fill="none" opacity="0.91"></circle><circle r="11" cx="173" cy="313" stroke-width="2" stroke="hsl(154, 50%, 50%)" fill="none" opacity="0.98"></circle><circle r="10" cx="578" cy="642" stroke-width="2" stroke="hsl(292, 50%, 50%)" fill="none" opacity="0.55"></circle><circle r="13" cx="703" cy="247" stroke-width="2" stroke="hsl(256, 50%, 50%)" fill="none" opacity="0.50"></circle><circle r="8" cx="596" cy="230" stroke-width="2" stroke="hsl(295, 50%, 50%)" fill="none" opacity="0.80"></circle><circle r="10.5" cx="58" cy="114" stroke-width="2" stroke="hsl(284, 50%, 50%)" fill="none" opacity="0.76"></circle><circle r="13" cx="184" cy="77" stroke-width="2" stroke="hsl(200, 50%, 50%)" fill="none" opacity="0.48"></circle><circle r="10.5" cx="479" cy="688" stroke-width="2" stroke="hsl(254, 50%, 50%)" fill="none" opacity="0.58"></circle></svg>