<svg xmlns="http://www.w3.org/2000/svg" version="1.1" xmlns:xlink="http://www.w3.org/1999/xlink" xmlns:svgjs="http://svgjs.dev/svgjs" viewBox="0 0 2400 800"><defs><linearGradient x1="50%" y1="0%" x2="50%" y2="100%" id="sssurf-grad"><stop stop-color="#227087ff" stop-opacity="1" offset="0%"></stop><stop stop-color="hsla(270, 69%, 29%, 1)" stop-opacity="1" offset="100%"></stop></linearGradient></defs><g fill="url(#sssurf-grad)" transform="matrix(1,0,0,1,10.8282470703125,218.44062042236328)"><path d="M-10,10C33.75,10.625,114.58333333333334,16.75,200,13C285.41666666666663,9.25,316.66666666666663,-8.833333333333334,400,-8C483.33333333333337,-7.166666666666667,516.6666666666666,18.041666666666668,600,17C683.3333333333334,15.958333333333334,716.6666666666666,-15.916666666666668,800,-13C883.3333333333334,-10.083333333333332,916.6666666666666,29.958333333333332,1000,31C1083.3333333333333,32.041666666666664,1116.6666666666667,-7.375,1200,-8C1283.3333333333333,-8.625,1316.6666666666667,28.208333333333332,1400,28C1483.3333333333333,27.791666666666668,1516.6666666666667,-14.208333333333334,1600,-9C1683.3333333333333,-3.791666666666666,1716.6666666666667,49.875,1800,53C1883.3333333333333,56.125,1916.6666666666667,8.708333333333332,2000,6C2083.3333333333335,3.291666666666667,2118.75,39.166666666666664,2200,40C2281.25,40.833333333333336,2296.25,-65,2390,10C2483.75,85,3252.0833333333335,214.58333333333331,2650,400C2047.9166666666665,585.4166666666667,156.25,795.8333333333334,-500,900" transform="matrix(1,0,0,1,0,35)" opacity="0.05"></path><path d="M-10,10C33.75,10.625,114.58333333333334,16.75,200,13C285.41666666666663,9.25,316.66666666666663,-8.833333333333334,400,-8C483.33333333333337,-7.166666666666667,516.6666666666666,18.041666666666668,600,17C683.3333333333334,15.958333333333334,716.6666666666666,-15.916666666666668,800,-13C883.3333333333334,-10.083333333333332,916.6666666666666,29.958333333333332,1000,31C1083.3333333333333,32.041666666666664,1116.6666666666667,-7.375,1200,-8C1283.3333333333333,-8.625,1316.6666666666667,28.208333333333332,1400,28C1483.3333333333333,27.791666666666668,1516.6666666666667,-14.208333333333334,1600,-9C1683.3333333333333,-3.791666666666666,1716.6666666666667,49.875,1800,53C1883.3333333333333,56.125,1916.6666666666667,8.708333333333332,2000,6C2083.3333333333335,3.291666666666667,2118.75,39.166666666666664,2200,40C2281.25,40.833333333333336,2296.25,-65,2390,10C2483.75,85,3252.0833333333335,214.58333333333331,2650,400C2047.9166666666665,585.4166666666667,156.25,795.8333333333334,-500,900" transform="matrix(1,0,0,1,0,70)" opacity="0.21"></path><path d="M-10,10C33.75,10.625,114.58333333333334,16.75,200,13C285.41666666666663,9.25,316.66666666666663,-8.833333333333334,400,-8C483.33333333333337,-7.166666666666667,516.6666666666666,18.041666666666668,600,17C683.3333333333334,15.958333333333334,716.6666666666666,-15.916666666666668,800,-13C883.3333333333334,-10.083333333333332,916.6666666666666,29.958333333333332,1000,31C1083.3333333333333,32.041666666666664,1116.6666666666667,-7.375,1200,-8C1283.3333333333333,-8.625,1316.6666666666667,28.208333333333332,1400,28C1483.3333333333333,27.791666666666668,1516.6666666666667,-14.208333333333334,1600,-9C1683.3333333333333,-3.791666666666666,1716.6666666666667,49.875,1800,53C1883.3333333333333,56.125,1916.6666666666667,8.708333333333332,2000,6C2083.3333333333335,3.291666666666667,2118.75,39.166666666666664,2200,40C2281.25,40.833333333333336,2296.25,-65,2390,10C2483.75,85,3252.0833333333335,214.58333333333331,2650,400C2047.9166666666665,585.4166666666667,156.25,795.8333333333334,-500,900" transform="matrix(1,0,0,1,0,105)" opacity="0.37"></path><path d="M-10,10C33.75,10.625,114.58333333333334,16.75,200,13C285.41666666666663,9.25,316.66666666666663,-8.833333333333334,400,-8C483.33333333333337,-7.166666666666667,516.6666666666666,18.041666666666668,600,17C683.3333333333334,15.958333333333334,716.6666666666666,-15.916666666666668,800,-13C883.3333333333334,-10.083333333333332,916.6666666666666,29.958333333333332,1000,31C1083.3333333333333,32.041666666666664,1116.6666666666667,-7.375,1200,-8C1283.3333333333333,-8.625,1316.6666666666667,28.208333333333332,1400,28C1483.3333333333333,27.791666666666668,1516.6666666666667,-14.208333333333334,1600,-9C1683.3333333333333,-3.791666666666666,1716.6666666666667,49.875,1800,53C1883.3333333333333,56.125,1916.6666666666667,8.708333333333332,2000,6C2083.3333333333335,3.291666666666667,2118.75,39.166666666666664,2200,40C2281.25,40.833333333333336,2296.25,-65,2390,10C2483.75,85,3252.0833333333335,214.58333333333331,2650,400C2047.9166666666665,585.4166666666667,156.25,795.8333333333334,-500,900" transform="matrix(1,0,0,1,0,140)" opacity="0.53"></path><path d="M-10,10C33.75,10.625,114.58333333333334,16.75,200,13C285.41666666666663,9.25,316.66666666666663,-8.833333333333334,400,-8C483.33333333333337,-7.166666666666667,516.6666666666666,18.041666666666668,600,17C683.3333333333334,15.958333333333334,716.6666666666666,-15.916666666666668,800,-13C883.3333333333334,-10.083333333333332,916.6666666666666,29.958333333333332,1000,31C1083.3333333333333,32.041666666666664,1116.6666666666667,-7.375,1200,-8C1283.3333333333333,-8.625,1316.6666666666667,28.208333333333332,1400,28C1483.3333333333333,27.791666666666668,1516.6666666666667,-14.208333333333334,1600,-9C1683.3333333333333,-3.791666666666666,1716.6666666666667,49.875,1800,53C1883.3333333333333,56.125,1916.6666666666667,8.708333333333332,2000,6C2083.3333333333335,3.291666666666667,2118.75,39.166666666666664,2200,40C2281.25,40.833333333333336,2296.25,-65,2390,10C2483.75,85,3252.0833333333335,214.58333333333331,2650,400C2047.9166666666665,585.4166666666667,156.25,795.8333333333334,-500,900" transform="matrix(1,0,0,1,0,175)" opacity="0.68"></path><path d="M-10,10C33.75,10.625,114.58333333333334,16.75,200,13C285.41666666666663,9.25,316.66666666666663,-8.833333333333334,400,-8C483.33333333333337,-7.166666666666667,516.6666666666666,18.041666666666668,600,17C683.3333333333334,15.958333333333334,716.6666666666666,-15.916666666666668,800,-13C883.3333333333334,-10.083333333333332,916.6666666666666,29.958333333333332,1000,31C1083.3333333333333,32.041666666666664,1116.6666666666667,-7.375,1200,-8C1283.3333333333333,-8.625,1316.6666666666667,28.208333333333332,1400,28C1483.3333333333333,27.791666666666668,1516.6666666666667,-14.208333333333334,1600,-9C1683.3333333333333,-3.791666666666666,1716.6666666666667,49.875,1800,53C1883.3333333333333,56.125,1916.6666666666667,8.708333333333332,2000,6C2083.3333333333335,3.291666666666667,2118.75,39.166666666666664,2200,40C2281.25,40.833333333333336,2296.25,-65,2390,10C2483.75,85,3252.0833333333335,214.58333333333331,2650,400C2047.9166666666665,585.4166666666667,156.25,795.8333333333334,-500,900" transform="matrix(1,0,0,1,0,210)" opacity="0.84"></path><path d="M-10,10C33.75,10.625,114.58333333333334,16.75,200,13C285.41666666666663,9.25,316.66666666666663,-8.833333333333334,400,-8C483.33333333333337,-7.166666666666667,516.6666666666666,18.041666666666668,600,17C683.3333333333334,15.958333333333334,716.6666666666666,-15.916666666666668,800,-13C883.3333333333334,-10.083333333333332,916.6666666666666,29.958333333333332,1000,31C1083.3333333333333,32.041666666666664,1116.6666666666667,-7.375,1200,-8C1283.3333333333333,-8.625,1316.6666666666667,28.208333333333332,1400,28C1483.3333333333333,27.791666666666668,1516.6666666666667,-14.208333333333334,1600,-9C1683.3333333333333,-3.791666666666666,1716.6666666666667,49.875,1800,53C1883.3333333333333,56.125,1916.6666666666667,8.708333333333332,2000,6C2083.3333333333335,3.291666666666667,2118.75,39.166666666666664,2200,40C2281.25,40.833333333333336,2296.25,-65,2390,10C2483.75,85,3252.0833333333335,214.58333333333331,2650,400C2047.9166666666665,585.4166666666667,156.25,795.8333333333334,-500,900" transform="matrix(1,0,0,1,0,245)" opacity="1"></path></g></svg>